<?xml version="1.0" standalone="no"?>
<!DOCTYPE svg PUBLIC "-//W3C//DTD SVG 20010904//EN"
 "http://www.w3.org/TR/2001/REC-SVG-20010904/DTD/svg10.dtd">
<svg version="1.0" xmlns="http://www.w3.org/2000/svg"
 width="460.000000pt" height="460.000000pt" viewBox="0 0 460.000000 460.000000"
 preserveAspectRatio="xMidYMid meet">
<metadata>
Created by potrace 1.14, written by Peter Selinger 2001-2017
</metadata>
<g transform="translate(0.000000,460.000000) scale(0.100000,-0.100000)"
fill="#000000" stroke="none">
<path d="M1480 4451 c-50 -21 -47 -14 -53 -104 -4 -61 -3 -66 10 -48 7 11 17
43 20 71 3 27 10 50 14 50 5 0 43 -12 86 -26 43 -14 85 -27 93 -29 36 -10 130
-45 185 -69 33 -15 72 -32 88 -39 32 -14 31 -8 12 -77 -8 -30 -15 -67 -15 -82
0 -26 -3 -28 -37 -28 -21 0 -59 7 -86 15 -26 8 -50 14 -52 14 -3 0 -19 8 -36
17 -26 13 -34 14 -45 2 -18 -17 -28 -78 -27 -160 2 -79 -7 -90 -76 -98 -41 -4
-46 -7 -43 -28 4 -30 -78 -122 -123 -138 -66 -22 -127 -67 -181 -132 -92 -111
-126 -203 -125 -334 1 -88 20 -147 73 -229 34 -52 36 -58 42 -179 8 -154 12
-184 36 -277 27 -103 66 -187 104 -221 38 -34 128 -78 238 -117 l77 -27 7 -45
c3 -24 12 -49 18 -56 37 -40 37 -43 15 -98 -11 -30 -23 -61 -25 -69 -2 -8 -10
-35 -17 -60 -9 -29 -14 -84 -13 -153 l1 -108 -30 5 c-16 4 -41 8 -54 11 -13 2
-45 11 -70 19 -25 9 -60 18 -78 21 -18 3 -43 9 -56 14 -48 19 -105 24 -207 21
-58 -1 -140 -4 -183 -5 -54 -1 -82 -6 -93 -17 -11 -11 -17 -48 -21 -146 -4
-89 -9 -129 -17 -126 -6 2 -46 6 -89 8 -61 2 -80 0 -84 -11 -9 -22 17 -575 28
-604 6 -15 18 -26 27 -26 30 2 122 -15 126 -22 3 -4 -11 -15 -29 -26 -19 -10
-37 -26 -40 -35 -12 -39 32 -99 115 -155 25 -16 48 -34 51 -38 3 -5 8 -8 10
-7 2 1 38 -15 81 -35 137 -65 234 -83 458 -83 107 0 225 -5 263 -12 50 -9 79
-9 115 0 26 6 53 12 60 13 17 4 43 43 45 67 1 11 2 20 3 20 2 0 15 -5 31 -11
78 -30 469 -29 549 1 14 6 39 12 57 15 160 28 357 160 384 258 12 41 6 112
-11 148 -19 40 -113 139 -131 139 -7 0 -20 10 -31 22 -10 12 -13 18 -6 14 6
-4 12 -3 12 3 0 5 8 12 18 15 25 8 29 37 20 152 -6 79 10 226 25 236 7 4 8 8
3 8 -5 0 -3 7 4 14 8 11 18 12 36 5 51 -19 114 -11 165 22 39 25 101 90 105
109 0 3 6 18 12 33 7 16 12 45 12 65 0 32 6 40 38 60 20 13 71 54 112 91 69
64 74 72 76 112 1 39 -3 46 -43 81 -25 21 -79 64 -121 96 -146 110 -165 116
-243 66 -24 -15 -45 -22 -46 -17 -2 6 -15 25 -28 43 l-25 34 33 14 c17 8 37
15 42 16 28 5 127 69 164 107 42 44 85 123 116 219 10 30 17 55 16 55 -2 0 4
18 12 40 16 41 48 151 47 160 0 3 6 18 14 33 27 52 54 259 46 344 -5 42 -11
85 -14 95 -3 10 -8 35 -10 56 -6 49 -34 134 -58 172 -10 16 -18 27 -18 24 0
-11 -96 86 -125 126 -44 60 -190 200 -276 264 -68 50 -166 113 -179 116 -3 0
-15 7 -28 14 -48 26 -129 44 -209 45 -49 1 -88 7 -95 14 -7 7 -17 12 -23 12
-15 0 -113 99 -121 122 -3 10 -9 18 -14 18 -13 0 -32 -59 -39 -117 l-6 -53
-45 23 c-25 12 -51 31 -59 42 -39 53 -88 86 -203 135 -68 28 -130 53 -138 55
-8 2 -32 11 -52 19 -21 9 -38 14 -38 12 0 -3 -18 1 -41 9 -68 24 -120 26 -169
6z"/>
<path d="M1394 4248 c-16 -12 -32 -27 -36 -33 -4 -5 -8 -6 -8 -1 0 5 -8 2 -19
-8 -10 -9 -27 -19 -37 -21 -11 -3 -38 -10 -61 -17 -48 -14 -149 1 -190 28 -20
12 -26 12 -53 -5 l-31 -18 23 -15 c156 -102 320 -76 418 67 35 51 34 54 -6 23z"/>
</g>
</svg>
